<svg width="420.961" height="59.92" viewBox="0 0 111.379 15.854" xmlns="http://www.w3.org/2000/svg"><g style="fill:#fff" aria-label="mobilenet"><path d="M16.722 6.795C16.468 5.249 15.24 4 13.102 4c-1.016 0-1.778.211-2.413.656l-1.1 1.481C9.144 4.91 7.979 4 6.139 4c-1.017 0-1.757.211-2.392.656L2.92 6.01V4.297H0v11.26h2.921V9.78c0-2.603.72-3.725 2.032-3.725 1.122 0 1.778.635 1.926 1.799.064.571.085 1.185.085 1.841v5.864h2.9v-5.78c0-2.603.74-3.725 2.053-3.725 1.122 0 1.757.635 1.905 1.799.063.571.085 1.185.085 1.841v5.864h2.92v-6.71c0-.91-.02-1.482-.105-2.053zM25.792 4c-3.747 0-5.842 2.497-5.842 5.926 0 3.408 2.095 5.927 5.842 5.927 3.746 0 5.842-2.519 5.842-5.927C31.634 6.497 29.538 4 25.792 4zm0 9.8c-1.757 0-2.816-1.46-2.816-3.874 0-2.434 1.059-3.873 2.816-3.873 1.756 0 2.815 1.439 2.815 3.873 0 2.413-1.059 3.874-2.815 3.874zM41.55 4c-1.143 0-2.286.275-2.92.783l-.847 1.227V0h-2.921v15.558h2.92v-1.503l.741 1.164c.572.402 1.715.635 2.646.635 2.9 0 5.398-2.074 5.398-6.138C46.567 6.392 44.704 4 41.55 4zm-.952 9.8c-1.355 0-2.815-.91-2.815-3.472V9.8c0-2.751 1.312-3.746 2.92-3.746 1.736 0 2.837 1.545 2.837 3.852 0 2.604-1.249 3.895-2.942 3.895zM51.255.106c-.952 0-1.608.635-1.608 1.545 0 .931.656 1.545 1.608 1.545.953 0 1.609-.614 1.609-1.545 0-.91-.656-1.545-1.609-1.545zm1.46 15.452V4.297h-2.92v11.26zM59.586 0h-2.922v11.938c0 .74 0 1.27.043 1.778.063 1.46.973 1.99 2.413 1.99.656 0 1.227-.022 1.799-.085v-2.01c-.995.063-1.25-.128-1.313-.7-.02-.296-.02-.592-.02-1.037zM74.2 9.694c0-3.069-1.82-5.693-5.27-5.693-3.45 0-5.716 2.518-5.716 5.969 0 3.958 2.392 5.884 5.483 5.884 2.645 0 4.762-1.334 5.334-3.958H71.11c-.19 1.206-1.101 1.905-2.35 1.905-1.355 0-2.413-.741-2.603-3.112h8c.043-.38.043-.72.043-.995zm-5.398-3.64c1.397 0 2.202.952 2.392 2.73h-4.953c.254-1.862 1.207-2.73 2.561-2.73z"/><path style="fill:#ff4da6" d="M166.084 119.867c-.232-1.969-1.608-3.154-4-3.154-1.08 0-1.905.212-2.71.783l-.867 1.334v-1.82h-2.921v11.26h2.92v-5.143c0-3.133 1.123-4.36 2.54-4.36 1.419 0 2.075.804 2.16 1.989.042.571.042 1.1.042 1.566v5.948h2.921v-6.35c0-.91-.021-1.482-.085-2.053zm14.193 2.54c0-3.07-1.82-5.694-5.27-5.694-3.451 0-5.716 2.519-5.716 5.969 0 3.958 2.392 5.884 5.482 5.884 2.646 0 4.763-1.333 5.334-3.958h-2.92c-.191 1.207-1.101 1.905-2.35 1.905-1.355 0-2.413-.74-2.604-3.111h8.001c.043-.381.043-.72.043-.995zm-5.398-3.64c1.397 0 2.202.952 2.392 2.73h-4.953c.254-1.863 1.207-2.73 2.561-2.73zm12.224.253h2.328v-1.926h-2.328v-2.773h-2.921v2.773h-1.651v1.926h1.65v5.546c0 .635 0 1.122.043 1.63.127 1.587.91 2.307 3.09 2.307a11.8 11.8 0 0 0 1.927-.148v-1.905c-1.63.127-2.032-.127-2.117-1.228-.021-.296-.021-.614-.021-.995z" transform="translate(-78.052 -112.712)"/></g></svg>